{"title":"Un Novio Para Mi Mujer - AVM","uid":5045335,"size":276948725,"categoryP":"video","categoryS":"handheld","magnet":"?xt=urn:btih:1662b7147516991d2906e15390cf232a704f67b3&amp;dn=Un+Novio+Para+Mi+Mujer+-+AVM&amp;tr=udp%3A%2F%2Ftracker.openbittorrent.com%3A80&amp;tr=udp%3A%2F%2Fopen.demonii.com%3A1337&amp;tr=udp%3A%2F%2Ftracker.coppersurfer.tk%3A6969&amp;tr=udp%3A%2F%2Fexodus.desync.com%3A6969","seeders":0,"leechers":0,"uploader":"AVIDM","files":1,"time":1249596314,"description":"AVIDMobile - http://www.avidmobile.com.ar (Mobile media)\n\nVideo\nID                               : 1\nFormat                           : MPEG-4 Visual\nFormat profile                   : Advanced Simple@L5\nFormat settings, BVOP            : Yes\nFormat settings, QPel            : No\nFormat settings, GMC             : No warppoints\nFormat settings, Matrix          : Default (H.263)\nCodec ID                         : 20\nDuration                         : 1h 41mn\nBit rate mode                    : Variable\nBit rate                         : 299 Kbps\nMaximum bit rate                 : 948 Kbps\nWidth                            : 320 pixels\nHeight                           : 240 pixels\nDisplay aspect ratio             : 4/3\nFrame rate mode                  : Variable\nFrame rate                       : 23.976 fps\nMinimum frame rate               : 23.974 fps\nMaximum frame rate               : 23.981 fps\nResolution                       : 24 bits\nColorimetry                      : 4:2:0\nScan type                        : Progressive\nBits/(Pixel*Frame)               : 0.162\nStream size                      : 217 MiB (82%)\n\nAudio\nID                               : 2\nFormat                           : AAC\nFormat/Info                      : Advanced Audio Codec\nFormat version                   : Version 4\nFormat profile                   : LC\nFormat settings, SBR             : No\nCodec ID                         : 40\nDuration                         : 1h 41mn\nBit rate mode                    : Variable\nBit rate                         : 62.2 Kbps\nMaximum bit rate                 : 150 Kbps\nChannel(s)                       : 2 channels\nChannel positions                : L R\nSampling rate                    : 22.05 KHz\nResolution                       : 16 bits\nStream size                      : 45.1 MiB (17%)","torrent":{"xt":"urn:btih:1662b7147516991d2906e15390cf232a704f67b3","amp;dn":"Un+Novio+Para+Mi+Mujer+-+AVM","amp;tr":["udp%3A%2F%2Ftracker.openbittorrent.com%3A80","udp%3A%2F%2Fopen.demonii.com%3A1337","udp%3A%2F%2Ftracker.coppersurfer.tk%3A6969","udp%3A%2F%2Fexodus.desync.com%3A6969"],"infoHash":"1662b7147516991d2906e15390cf232a704f67b3","infoHashBuffer":{"type":"Buffer","data":[22,98,183,20,117,22,153,29,41,6,225,83,144,207,35,42,112,79,103,179]},"announce":[],"urlList":[]}}